<?xml version="1.0" encoding="UTF-8"?>
<svg xmlns="http://www.w3.org/2000/svg" xmlns:xlink="http://www.w3.org/1999/xlink" width="512px" height="512px" viewBox="0 0 512 512" version="1.1">
<defs>
<linearGradient id="linear0" gradientUnits="userSpaceOnUse" x1="58.6724" y1="152.7529" x2="127.5682" y2="83.8571" gradientTransform="matrix(2,0,0,2,0,0)">
<stop offset="0" style="stop-color:rgb(94.509804%,55.294118%,28.235294%);stop-opacity:1;"/>
<stop offset="1" style="stop-color:rgb(93.333333%,26.666667%,41.176471%);stop-opacity:1;"/>
</linearGradient>
<linearGradient id="linear1" gradientUnits="userSpaceOnUse" x1="153.1699" y1="236.1777" x2="213.7782" y2="175.5695" gradientTransform="matrix(2,0,0,2,0,0)">
<stop offset="0" style="stop-color:rgb(94.509804%,55.294118%,28.235294%);stop-opacity:1;"/>
<stop offset="1" style="stop-color:rgb(93.333333%,26.666667%,41.176471%);stop-opacity:1;"/>
</linearGradient>
</defs>
<g id="surface1">
<path style=" stroke:none;fill-rule:nonzero;fill:url(#linear0);" d="M 147.714844 297.640625 L 158.320312 283.09375 L 187.40625 304.304688 L 176.800781 318.84375 C 122.554688 393.222656 109.6875 449.777344 125.125 465.21875 C 147.121094 487.214844 242.730469 452.996094 348.46875 347.269531 C 454.175781 241.5625 488.40625 145.96875 466.402344 123.96875 C 449.6875 107.234375 388.652344 122.683594 308.53125 184.253906 L 294.257812 195.222656 L 272.320312 166.679688 L 286.597656 155.714844 C 337.222656 116.820312 397.714844 83.511719 443.6875 81.972656 C 396.933594 31.574219 330.171875 0 256 0 C 114.625 0 0 114.613281 0 255.992188 C 0 330.722656 32.027344 397.949219 83.097656 444.753906 C 83.308594 406.976562 105.40625 355.660156 147.714844 297.640625 Z M 212.820312 198.875 L 221.34375 156.785156 L 241.175781 156.785156 L 249.671875 198.867188 C 251.847656 209.625 260.308594 218.085938 271.085938 220.273438 L 313.148438 228.789062 L 313.148438 248.613281 L 271.085938 257.125 C 260.308594 259.3125 251.847656 267.773438 249.671875 278.53125 L 241.15625 320.597656 L 221.34375 320.597656 L 212.820312 278.53125 C 210.632812 267.773438 202.175781 259.3125 191.398438 257.125 L 149.335938 248.613281 L 149.335938 228.789062 L 191.398438 220.289062 C 202.175781 218.113281 210.632812 209.644531 212.820312 198.875 Z M 137.921875 122.753906 C 153.273438 122.753906 165.710938 135.195312 165.710938 150.542969 C 165.710938 165.886719 153.273438 178.328125 137.921875 178.328125 C 122.574219 178.328125 110.121094 165.886719 110.121094 150.539062 C 110.121094 135.195312 122.574219 122.753906 137.921875 122.753906 Z M 137.921875 122.753906 "/>
<path style=" stroke:none;fill-rule:nonzero;fill:url(#linear1);" d="M 501.546875 183.609375 C 483.707031 241.777344 432.953125 313.6875 373.910156 372.722656 C 313.996094 432.632812 240.832031 484.03125 182.203125 501.148438 C 205.585938 508.175781 230.339844 512 256 512 C 397.382812 512 512 397.375 512 255.992188 C 512 230.851562 508.304688 206.570312 501.546875 183.609375 Z M 501.546875 183.609375 "/>
</g>
</svg>
